<mxfile host="app.diagrams.net" modified="2023-05-08T05:55:55.283Z" agent="Mozilla/5.0 (Windows NT 10.0; Win64; x64) AppleWebKit/537.36 (KHTML, like Gecko) Chrome/112.0.0.0 Safari/537.36" etag="-S-U4a_SOjeMnfo7Qtgz" version="21.2.9" type="github">
  <diagram id="turxV7ohII1XpymAgil2" name="Page-1">
    <mxGraphModel dx="3430" dy="1154" grid="1" gridSize="10" guides="1" tooltips="1" connect="1" arrows="1" fold="1" page="1" pageScale="1" pageWidth="850" pageHeight="1100" math="0" shadow="0">
      <root>
        <mxCell id="0" />
        <mxCell id="1" parent="0" />
        <mxCell id="H7jlmLXIGGdzzBjCZ_9L-1" value="INTERNET" style="text;strokeColor=none;fillColor=none;html=1;fontSize=24;fontStyle=1;verticalAlign=middle;align=center;" parent="1" vertex="1">
          <mxGeometry x="365" y="160" width="100" height="40" as="geometry" />
        </mxCell>
        <mxCell id="H7jlmLXIGGdzzBjCZ_9L-2" value="&lt;font style=&quot;font-size: 36px;&quot;&gt;BKM GATE İSYM ORTAMI&lt;/font&gt;" style="text;strokeColor=none;fillColor=none;html=1;fontSize=24;fontStyle=1;verticalAlign=middle;align=center;" parent="1" vertex="1">
          <mxGeometry x="965" y="10" width="360" height="40" as="geometry" />
        </mxCell>
        <mxCell id="afenZqITxFkO3YegGz8j-1" style="edgeStyle=orthogonalEdgeStyle;rounded=0;orthogonalLoop=1;jettySize=auto;html=1;entryX=0.463;entryY=-0.054;entryDx=0;entryDy=0;entryPerimeter=0;" parent="1" source="H7jlmLXIGGdzzBjCZ_9L-4" target="H7jlmLXIGGdzzBjCZ_9L-19" edge="1">
          <mxGeometry relative="1" as="geometry">
            <mxPoint x="1485" y="560" as="targetPoint" />
          </mxGeometry>
        </mxCell>
        <mxCell id="H7jlmLXIGGdzzBjCZ_9L-4" value="&lt;font style=&quot;font-size: 24px;&quot;&gt;&lt;br&gt;gecit.api-preprod.bkm.com.tr&lt;br&gt;&lt;br&gt;&lt;/font&gt;&lt;table width=&quot;166&quot; cellspacing=&quot;0&quot; cellpadding=&quot;0&quot; border=&quot;0&quot;&gt;&lt;tbody&gt;&lt;tr style=&quot;height:15.0pt&quot; height=&quot;20&quot;&gt;  &lt;td style=&quot;height:15.0pt;width:125pt&quot; width=&quot;166&quot; height=&quot;20&quot;&gt;&lt;p style=&quot;margin-top: 0pt; margin-bottom: 0pt; margin-left: 0in; direction: ltr; unicode-bidi: embed; word-break: normal;&quot;&gt;&lt;font style=&quot;font-size: 24px;&quot;&gt;192.168.150.95&lt;/font&gt;&lt;/p&gt;&lt;/td&gt;&lt;/tr&gt;&lt;/tbody&gt;&lt;/table&gt;" style="rounded=1;whiteSpace=wrap;html=1;align=left;" parent="1" vertex="1">
          <mxGeometry x="740" y="288.75" width="350" height="182.5" as="geometry" />
        </mxCell>
        <mxCell id="SSxWaBciV09GQIjAMo8m-8" style="edgeStyle=orthogonalEdgeStyle;rounded=0;orthogonalLoop=1;jettySize=auto;html=1;exitX=1;exitY=0.5;exitDx=0;exitDy=0;entryX=0;entryY=0.5;entryDx=0;entryDy=0;" parent="1" source="H7jlmLXIGGdzzBjCZ_9L-5" target="tp8x5q8mLNqvDI4eOgfu-17" edge="1">
          <mxGeometry relative="1" as="geometry" />
        </mxCell>
        <mxCell id="H7jlmLXIGGdzzBjCZ_9L-5" value="&lt;font style=&quot;font-size: 24px;&quot;&gt;OPENSHIFT ROUTER NODES&lt;br style=&quot;&quot;&gt;&lt;br style=&quot;&quot;&gt;&lt;/font&gt;&lt;div style=&quot;&quot;&gt;&lt;span style=&quot;font-size: 24px;&quot;&gt;192.168.154.203&lt;/span&gt;&lt;/div&gt;&lt;div style=&quot;&quot;&gt;&lt;font style=&quot;font-size: 24px;&quot;&gt;192.168.154.203&lt;/font&gt;&lt;/div&gt;&lt;div style=&quot;font-size: 18px;&quot;&gt;&lt;br style=&quot;font-size: 18px;&quot;&gt;&lt;/div&gt;" style="shape=loopLimit;whiteSpace=wrap;html=1;fontSize=18;" parent="1" vertex="1">
          <mxGeometry x="1800" y="600" width="300" height="210" as="geometry" />
        </mxCell>
        <mxCell id="H7jlmLXIGGdzzBjCZ_9L-7" style="edgeStyle=orthogonalEdgeStyle;rounded=0;orthogonalLoop=1;jettySize=auto;html=1;entryX=0;entryY=0.5;entryDx=0;entryDy=0;exitX=1;exitY=0.5;exitDx=0;exitDy=0;" parent="1" source="H7jlmLXIGGdzzBjCZ_9L-23" target="H7jlmLXIGGdzzBjCZ_9L-13" edge="1">
          <mxGeometry relative="1" as="geometry">
            <mxPoint x="170" y="330" as="sourcePoint" />
          </mxGeometry>
        </mxCell>
        <mxCell id="H7jlmLXIGGdzzBjCZ_9L-9" value="BKM SUBNET" style="text;strokeColor=none;fillColor=none;html=1;fontSize=24;fontStyle=1;verticalAlign=middle;align=center;" parent="1" vertex="1">
          <mxGeometry x="1660" y="160" width="100" height="40" as="geometry" />
        </mxCell>
        <mxCell id="H7jlmLXIGGdzzBjCZ_9L-12" style="edgeStyle=orthogonalEdgeStyle;rounded=0;orthogonalLoop=1;jettySize=auto;html=1;exitX=1;exitY=0.5;exitDx=0;exitDy=0;entryX=0;entryY=0.5;entryDx=0;entryDy=0;" parent="1" source="H7jlmLXIGGdzzBjCZ_9L-13" target="H7jlmLXIGGdzzBjCZ_9L-4" edge="1">
          <mxGeometry relative="1" as="geometry" />
        </mxCell>
        <mxCell id="H7jlmLXIGGdzzBjCZ_9L-13" value="&lt;font style=&quot;font-size: 24px;&quot;&gt;gecit.api-preprod.bkm.com.tr&lt;br&gt;31.145.171.55&lt;/font&gt;" style="rounded=0;whiteSpace=wrap;html=1;" parent="1" vertex="1">
          <mxGeometry x="250" y="310" width="330" height="130" as="geometry" />
        </mxCell>
        <mxCell id="SSxWaBciV09GQIjAMo8m-6" value="" style="edgeStyle=orthogonalEdgeStyle;rounded=0;orthogonalLoop=1;jettySize=auto;html=1;" parent="1" source="H7jlmLXIGGdzzBjCZ_9L-19" target="H7jlmLXIGGdzzBjCZ_9L-5" edge="1">
          <mxGeometry relative="1" as="geometry" />
        </mxCell>
        <mxCell id="H7jlmLXIGGdzzBjCZ_9L-19" value="&lt;font style=&quot;font-size: 24px;&quot;&gt;&lt;br style=&quot;&quot;&gt;gecit.api-intra.bkm.com.tr&lt;br style=&quot;&quot;&gt;&lt;br style=&quot;&quot;&gt;&lt;/font&gt;&lt;font style=&quot;font-size: 24px;&quot;&gt;192.168.154.28&lt;/font&gt;" style="rounded=1;whiteSpace=wrap;html=1;fontSize=17;align=center;" parent="1" vertex="1">
          <mxGeometry x="1310" y="625" width="380" height="160" as="geometry" />
        </mxCell>
        <mxCell id="H7jlmLXIGGdzzBjCZ_9L-21" style="edgeStyle=orthogonalEdgeStyle;rounded=0;orthogonalLoop=1;jettySize=auto;html=1;entryX=0;entryY=0.5;entryDx=0;entryDy=0;" parent="1" target="H7jlmLXIGGdzzBjCZ_9L-28" edge="1">
          <mxGeometry relative="1" as="geometry">
            <mxPoint x="169.99997267945992" y="702.4545454545453" as="sourcePoint" />
          </mxGeometry>
        </mxCell>
        <mxCell id="H7jlmLXIGGdzzBjCZ_9L-23" value="&lt;font style=&quot;font-size: 24px;&quot;&gt;Katılımcılar&lt;br&gt;&lt;/font&gt;&lt;span lang=&quot;TR&quot;&gt;&lt;font size=&quot;3&quot;&gt;Türkiye Any Erişime Açık&lt;/font&gt;&lt;br&gt;&lt;/span&gt;" style="ellipse;shape=doubleEllipse;whiteSpace=wrap;html=1;" parent="1" vertex="1">
          <mxGeometry x="-210" y="265" width="360" height="220" as="geometry" />
        </mxCell>
        <mxCell id="H7jlmLXIGGdzzBjCZ_9L-24" value="NET2" style="text;strokeColor=none;fillColor=none;html=1;fontSize=24;fontStyle=1;verticalAlign=middle;align=center;" parent="1" vertex="1">
          <mxGeometry x="590" y="580" width="100" height="40" as="geometry" />
        </mxCell>
        <mxCell id="H7jlmLXIGGdzzBjCZ_9L-27" style="edgeStyle=orthogonalEdgeStyle;rounded=0;orthogonalLoop=1;jettySize=auto;html=1;exitX=1;exitY=0.5;exitDx=0;exitDy=0;entryX=0;entryY=0.5;entryDx=0;entryDy=0;" parent="1" source="H7jlmLXIGGdzzBjCZ_9L-28" target="H7jlmLXIGGdzzBjCZ_9L-19" edge="1">
          <mxGeometry relative="1" as="geometry" />
        </mxCell>
        <mxCell id="H7jlmLXIGGdzzBjCZ_9L-28" value="&lt;font style=&quot;font-size: 24px;&quot;&gt;gecit.api-preprod.bkm.com.tr&lt;br&gt;100.100.10.202&lt;/font&gt;" style="rounded=0;whiteSpace=wrap;html=1;" parent="1" vertex="1">
          <mxGeometry x="430" y="630" width="450" height="150" as="geometry" />
        </mxCell>
        <mxCell id="H7jlmLXIGGdzzBjCZ_9L-29" value="" style="endArrow=none;dashed=1;html=1;dashPattern=1 3;strokeWidth=7;rounded=0;" parent="1" edge="1">
          <mxGeometry width="50" height="50" relative="1" as="geometry">
            <mxPoint x="650" y="510" as="sourcePoint" />
            <mxPoint x="650" y="210" as="targetPoint" />
          </mxGeometry>
        </mxCell>
        <mxCell id="H7jlmLXIGGdzzBjCZ_9L-30" value="" style="endArrow=none;dashed=1;html=1;dashPattern=1 3;strokeWidth=7;rounded=0;" parent="1" edge="1">
          <mxGeometry width="50" height="50" relative="1" as="geometry">
            <mxPoint x="1240" y="1030" as="sourcePoint" />
            <mxPoint x="1240" y="190" as="targetPoint" />
          </mxGeometry>
        </mxCell>
        <mxCell id="H7jlmLXIGGdzzBjCZ_9L-34" value="OPENSHIFT CLUSTER SUBNET" style="text;strokeColor=none;fillColor=none;html=1;fontSize=24;fontStyle=1;verticalAlign=middle;align=center;" parent="1" vertex="1">
          <mxGeometry x="1740" y="431.25" width="560" height="40" as="geometry" />
        </mxCell>
        <mxCell id="tp8x5q8mLNqvDI4eOgfu-1" value="" style="shape=mxgraph.cisco.storage.relational_database;sketch=0;html=1;pointerEvents=1;dashed=0;fillColor=#036897;strokeColor=#ffffff;strokeWidth=2;verticalLabelPosition=bottom;verticalAlign=top;align=center;outlineConnect=0;" parent="1" vertex="1">
          <mxGeometry x="2640" y="750" width="150" height="196" as="geometry" />
        </mxCell>
        <mxCell id="tp8x5q8mLNqvDI4eOgfu-2" value="DB MYSQL&#xa;ip : 192.168.154.190&#xa;port 3306 " style="text;strokeColor=none;fillColor=none;spacingLeft=4;spacingRight=4;overflow=hidden;rotatable=0;points=[[0,0.5],[1,0.5]];portConstraint=eastwest;fontSize=22;" parent="1" vertex="1">
          <mxGeometry x="2660" y="953" width="265" height="100" as="geometry" />
        </mxCell>
        <mxCell id="tp8x5q8mLNqvDI4eOgfu-3" value="" style="endArrow=block;startArrow=block;endFill=1;startFill=1;html=1;rounded=0;fontSize=22;exitX=1;exitY=0.5;exitDx=0;exitDy=0;" parent="1" source="tp8x5q8mLNqvDI4eOgfu-17" target="tp8x5q8mLNqvDI4eOgfu-1" edge="1">
          <mxGeometry width="160" relative="1" as="geometry">
            <mxPoint x="2030" y="560" as="sourcePoint" />
            <mxPoint x="2190" y="560" as="targetPoint" />
          </mxGeometry>
        </mxCell>
        <mxCell id="tp8x5q8mLNqvDI4eOgfu-5" value="" style="shape=mxgraph.cisco.servers.fileserver;sketch=0;html=1;pointerEvents=1;dashed=0;fillColor=#036897;strokeColor=#ffffff;strokeWidth=2;verticalLabelPosition=bottom;verticalAlign=top;align=center;outlineConnect=0;fontSize=22;" parent="1" vertex="1">
          <mxGeometry x="2380" y="930" width="140" height="170" as="geometry" />
        </mxCell>
        <mxCell id="tp8x5q8mLNqvDI4eOgfu-7" value="MB - KAFKA&#xa;ıp : 192.168.154.48-49-116&#xa;port 9092" style="text;strokeColor=none;fillColor=none;spacingLeft=4;spacingRight=4;overflow=hidden;rotatable=0;points=[[0,0.5],[1,0.5]];portConstraint=eastwest;fontSize=22;" parent="1" vertex="1">
          <mxGeometry x="2360" y="1110" width="320" height="110" as="geometry" />
        </mxCell>
        <mxCell id="tp8x5q8mLNqvDI4eOgfu-8" value="" style="endArrow=block;startArrow=block;endFill=1;startFill=1;html=1;rounded=0;fontSize=22;exitX=0.542;exitY=0.997;exitDx=0;exitDy=0;exitPerimeter=0;" parent="1" source="tp8x5q8mLNqvDI4eOgfu-17" target="tp8x5q8mLNqvDI4eOgfu-5" edge="1">
          <mxGeometry width="160" relative="1" as="geometry">
            <mxPoint x="2020" y="752.3499999999998" as="sourcePoint" />
            <mxPoint x="2115" y="729.9970588235293" as="targetPoint" />
          </mxGeometry>
        </mxCell>
        <mxCell id="tp8x5q8mLNqvDI4eOgfu-13" value="" style="shape=mxgraph.cisco.servers.communications_server;sketch=0;html=1;pointerEvents=1;dashed=0;fillColor=#036897;strokeColor=#ffffff;strokeWidth=2;verticalLabelPosition=bottom;verticalAlign=top;align=center;outlineConnect=0;fontSize=22;" parent="1" vertex="1">
          <mxGeometry x="2070" y="910" width="150" height="186" as="geometry" />
        </mxCell>
        <mxCell id="tp8x5q8mLNqvDI4eOgfu-14" value="IDENTITY - REDHAT SSO &#xa;ip : 192.168.132.18&#xa;port: 443&#xa;dns : sso.bkm.com.tr" style="text;strokeColor=none;fillColor=none;spacingLeft=4;spacingRight=4;overflow=hidden;rotatable=0;points=[[0,0.5],[1,0.5]];portConstraint=eastwest;fontSize=22;" parent="1" vertex="1">
          <mxGeometry x="1960" y="1100" width="380" height="130" as="geometry" />
        </mxCell>
        <mxCell id="tp8x5q8mLNqvDI4eOgfu-17" value="&lt;font style=&quot;font-size: 24px;&quot;&gt;OPENSHIFT WORKER NODES&lt;br style=&quot;&quot;&gt;&lt;br style=&quot;&quot;&gt;&lt;/font&gt;&lt;div style=&quot;&quot;&gt;&lt;font style=&quot;font-size: 24px;&quot;&gt;192.168.154.*&lt;/font&gt;&lt;br&gt;&lt;/div&gt;" style="shape=loopLimit;whiteSpace=wrap;html=1;fontSize=18;" parent="1" vertex="1">
          <mxGeometry x="2190" y="600" width="340" height="210" as="geometry" />
        </mxCell>
        <mxCell id="tp8x5q8mLNqvDI4eOgfu-18" value="" style="endArrow=block;startArrow=block;endFill=1;startFill=1;html=1;rounded=0;fontSize=22;" parent="1" source="tp8x5q8mLNqvDI4eOgfu-17" target="tp8x5q8mLNqvDI4eOgfu-13" edge="1">
          <mxGeometry width="160" relative="1" as="geometry">
            <mxPoint x="2240" y="820" as="sourcePoint" />
            <mxPoint x="2299.41" y="905.0000000000002" as="targetPoint" />
          </mxGeometry>
        </mxCell>
        <mxCell id="SSxWaBciV09GQIjAMo8m-1" value="" style="endArrow=none;dashed=1;html=1;dashPattern=1 3;strokeWidth=7;rounded=0;" parent="1" edge="1">
          <mxGeometry width="50" height="50" relative="1" as="geometry">
            <mxPoint x="200" y="519" as="sourcePoint" />
            <mxPoint x="1250" y="519.09" as="targetPoint" />
          </mxGeometry>
        </mxCell>
        <mxCell id="SSxWaBciV09GQIjAMo8m-3" value="BKM DMZ" style="text;strokeColor=none;fillColor=none;html=1;fontSize=24;fontStyle=1;verticalAlign=middle;align=center;" parent="1" vertex="1">
          <mxGeometry x="865" y="160" width="100" height="40" as="geometry" />
        </mxCell>
        <mxCell id="SSxWaBciV09GQIjAMo8m-4" value="&lt;span lang=&quot;TR&quot;&gt;&lt;font style=&quot;font-size: 24px;&quot;&gt;Katılımcılar&lt;br style=&quot;border-color: var(--border-color);&quot;&gt;BkmGateNet2IncomingPreProd_FW&lt;/font&gt;&lt;br&gt;&lt;/span&gt;" style="ellipse;shape=doubleEllipse;whiteSpace=wrap;html=1;" parent="1" vertex="1">
          <mxGeometry x="-210" y="585" width="370" height="240" as="geometry" />
        </mxCell>
        <mxCell id="SSxWaBciV09GQIjAMo8m-7" value="YÖS ve HHS api servisleri" style="text;strokeColor=none;fillColor=none;html=1;fontSize=24;fontStyle=1;verticalAlign=middle;align=center;" parent="1" vertex="1">
          <mxGeometry x="2080" y="550" width="560" height="40" as="geometry" />
        </mxCell>
      </root>
    </mxGraphModel>
  </diagram>
</mxfile>
